<svg xmlns="http://www.w3.org/2000/svg" width="68" height="58" viewBox="0 0 68 58"><path d="M66 52.581h-2c-.126-2.005.289-4.061-.277-6H62v-8h2v-26h2z"/><path d="M4 30.581H2v-10h2v10zM40 8.581h22v2H40zM8 18.581v-10h2v10zM16 2.581c.262-.333.521-.954.787-.957q8.213-.086 16.426 0c.266 0 .525.624.787.957zM4 20.581v-2h4v2zM38 6.581h2v2h-2z" fill="gray"/><path d="M62 10.581h2v2h-2z"/><path d="M10 8.581v-2h2v2zM36 4.581h2v2h-2zM12 6.581v-2h2v2zM34 2.581h2v2h-2zM14 4.581v-2h2v2z" fill="gray"/><path d="M64 52.581v2.5c-4.282.728-38.241.953-54 .34v-2.84z"/><path d="M8 46.581H6.1c-.2-2.635-.05-5.324-.1-8h2v8zM6 38.581H4.1c-.2-2.635-.05-5.324-.1-8h2v8zM10 52.581H8.277c-.566-1.939-.151-3.994-.277-6h2v6z" fill="gray"/><path d="M10 52.581v-2h52v-4h1.723c.566 1.939.151 3.995.277 6zM62 12.581h2v26h-2v-26z" fill="olive"/><path d="M62 42.581v4h-2v-2h-2v-2h4z" fill="#bfbfbf"/><path d="M62 42.581h-2v-2h-2v-2h4z" fill="#959595"/><path d="M4 20.581h52v2H4z" fill="#fefefe"/><circle cx="5" cy="23.581" r="1.414" fill="#fefe00"/><circle cx="5" cy="25.581" r="1.414" fill="#bfbfbf"/><circle cx="5" cy="27.581" r="1.414" fill="#fefe00"/><circle cx="5" cy="29.581" r="1.414" fill="#bfbfbf"/><path d="M62 10.581v2H40v-2z" fill="#fefefe"/><circle cx="39" cy="9.581" r="1.414" fill="#bfbfbf"/><path d="M56 20.581H8v-2h6v-2h2c.161 2.079.16 2.08 2 1.477v-1.477h2c.161 2.079.16 2.08 2 1.477v-1.477h2c.161 2.079.16 2.08 2 1.477v-1.477h2c.161 2.079.16 2.08 2 1.477v-1.477h2c.161 2.079.16 2.08 2 1.477v-1.477h2c.161 2.079.16 2.08 2 1.477v-1.477h2c.161 2.079.16 2.08 2 1.477v-1.477h2v1.728c2.275.757 1.981-.628 2-1.728h2v1.728c2.275.757 1.981-.628 2-1.728h2v1.728c2.275.757 1.981-.628 2-1.728h2v2h2v2z" fill="#bfbfbf"/><path d="M12 18.581h-2v-10h2v10zM16 4.581v-2h18v2H16z" fill="#fefefe"/><circle cx="37" cy="7.581" r="1.414" fill="#bfbfbf"/><circle cx="13" cy="7.581" r="1.414" fill="#fefefe"/><circle cx="35" cy="5.581" r="1.414" fill="#bfbfbf"/><circle cx="15" cy="5.581" r="1.414" fill="#fefefe"/><circle cx="7" cy="37.581" r="1.414" fill="#fefe00"/><circle cx="9" cy="39.581" r="1.414" fill="#fefe00"/><circle cx="9" cy="41.581" r="1.414" fill="#bfbfbf"/><circle cx="9" cy="43.581" r="1.414" fill="#fefe00"/><circle cx="9" cy="45.581" r="1.414" fill="#bfbfbf"/><circle cx="7" cy="31.581" r="1.414" fill="#bfbfbf"/><circle cx="7" cy="33.581" r="1.414" fill="#fefe00"/><circle cx="7" cy="35.581" r="1.414" fill="#bfbfbf"/><circle cx="11" cy="47.581" r="1.414" fill="#bfbfbf"/><circle cx="11" cy="49.581" r="1.414" fill="#fefe00"/><circle cx="61" cy="47.581" r="1.414" fill="#fefe00"/><circle cx="13" cy="49.581" r="1.414" fill="#bfbfbf"/><circle cx="15" cy="49.581" r="1.414" fill="#fefe00"/><circle cx="17" cy="49.581" r="1.414" fill="#bfbfbf"/><circle cx="19" cy="49.581" r="1.414" fill="#fefe00"/><circle cx="21" cy="49.581" r="1.414" fill="#bfbfbf"/><circle cx="23" cy="49.581" r="1.414" fill="#fefe00"/><circle cx="25" cy="49.581" r="1.414" fill="#bfbfbf"/><circle cx="27" cy="49.581" r="1.414" fill="#fefe00"/><circle cx="29" cy="49.581" r="1.414" fill="#bfbfbf"/><circle cx="31" cy="49.581" r="1.414" fill="#fefe00"/><circle cx="33" cy="49.581" r="1.414" fill="#bfbfbf"/><circle cx="35" cy="49.581" r="1.414" fill="#fefe00"/><circle cx="37" cy="49.581" r="1.414" fill="#bfbfbf"/><circle cx="39" cy="49.581" r="1.414" fill="#fefe00"/><circle cx="41" cy="49.581" r="1.414" fill="#bfbfbf"/><circle cx="43" cy="49.581" r="1.414" fill="#fefe00"/><circle cx="45" cy="49.581" r="1.414" fill="#bfbfbf"/><circle cx="47" cy="49.581" r="1.414" fill="#fefe00"/><circle cx="49" cy="49.581" r="1.414" fill="#bfbfbf"/><circle cx="51" cy="49.581" r="1.414" fill="#fefe00"/><circle cx="53" cy="49.581" r="1.414" fill="#bfbfbf"/><circle cx="55" cy="49.581" r="1.414" fill="#fefe00"/><circle cx="57" cy="49.581" r="1.414" fill="#bfbfbf"/><circle cx="59" cy="49.581" r="1.414" fill="#fefe00"/><path d="M60 50.581v-2h2v2z" fill="#bfbfbf"/><path d="M62 38.581h-2v-8h2z"/><ellipse cx="61" cy="28.581" rx="1.414" ry="2.828" fill="gray"/><circle cx="61" cy="13.581" r="1.414" fill="#fefe00"/><circle cx="61" cy="15.581" r="1.414" fill="#bfbfbf"/><circle cx="61" cy="17.581" r="1.414" fill="#fefe00"/><circle cx="61" cy="19.581" r="1.414" fill="#bfbfbf"/><circle cx="61" cy="21.581" r="1.414" fill="#fefe00"/><circle cx="61" cy="23.581" r="1.414" fill="#bfbfbf"/><circle cx="61" cy="25.581" r="1.414" fill="#fefe00"/><path d="M58 40.581h2v2h-2z" fill="#fefe00"/><circle cx="57" cy="43.581" r="1.414" fill="#fefe00"/><path d="M58 44.581h2v2h-2z" fill="#fefe00"/><circle cx="59" cy="37.581" r="1.414" fill="#fefe00"/><circle cx="57" cy="39.581" r="1.414" fill="#fefe00"/><path d="M54 22.581h4v4h-2v-2h-2z" fill="#959595"/><circle cx="57" cy="21.581" r="1.414"/><circle cx="7" cy="23.581" r="1.414" fill="#bfbfbf"/><circle cx="9" cy="23.581" r="1.414" fill="#fefe00"/><circle cx="11" cy="23.581" r="1.414" fill="#bfbfbf"/><circle cx="13" cy="23.581" r="1.414" fill="#fefe00"/><circle cx="15" cy="23.581" r="1.414" fill="#bfbfbf"/><circle cx="17" cy="23.581" r="1.414" fill="#fefe00"/><circle cx="19" cy="23.581" r="1.414" fill="#bfbfbf"/><circle cx="21" cy="23.581" r="1.414" fill="#fefe00"/><circle cx="23" cy="23.581" r="1.414" fill="#bfbfbf"/><circle cx="25" cy="23.581" r="1.414" fill="#fefe00"/><circle cx="27" cy="23.581" r="1.414" fill="#bfbfbf"/><circle cx="29" cy="23.581" r="1.414" fill="#fefe00"/><circle cx="31" cy="23.581" r="1.414" fill="#bfbfbf"/><circle cx="33" cy="23.581" r="1.414" fill="#fefe00"/><circle cx="35" cy="23.581" r="1.414" fill="#bfbfbf"/><circle cx="37" cy="23.581" r="1.414" fill="#fefe00"/><circle cx="39" cy="23.581" r="1.414" fill="#bfbfbf"/><circle cx="41" cy="23.581" r="1.414" fill="#fefe00"/><circle cx="43" cy="23.581" r="1.414" fill="#bfbfbf"/><circle cx="45" cy="23.581" r="1.414" fill="#fefe00"/><circle cx="47" cy="23.581" r="1.414" fill="#bfbfbf"/><circle cx="49" cy="23.581" r="1.414" fill="#fefe00"/><circle cx="51" cy="23.581" r="1.414" fill="#bfbfbf"/><circle cx="53" cy="23.581" r="1.414" fill="#fefe00"/><circle cx="7" cy="25.581" r="1.414" fill="#fefe00"/><circle cx="7" cy="27.581" r="1.414" fill="#bfbfbf"/><circle cx="7" cy="29.581" r="1.414" fill="#fefe00"/><circle cx="39" cy="11.581" r="1.414" fill="#fefe00"/><circle cx="41" cy="13.581" r="1.414" fill="#fefe00"/><circle cx="43" cy="13.581" r="1.414" fill="#bfbfbf"/><circle cx="45" cy="13.581" r="1.414" fill="#fefe00"/><circle cx="47" cy="13.581" r="1.414" fill="#bfbfbf"/><circle cx="49" cy="13.581" r="1.414" fill="#fefe00"/><circle cx="51" cy="13.581" r="1.414" fill="#bfbfbf"/><circle cx="53" cy="13.581" r="1.414" fill="#fefe00"/><circle cx="55" cy="13.581" r="1.414" fill="#bfbfbf"/><circle cx="57" cy="13.581" r="1.414" fill="#fefe00"/><circle cx="59" cy="13.581" r="1.414" fill="#bfbfbf"/><circle cx="37" cy="9.581" r="1.414" fill="#fefe00"/><circle cx="15" cy="15.581" r="1.414" fill="#fefe00"/><circle cx="19" cy="15.581" r="1.414" fill="#fefe00"/><circle cx="23" cy="15.581" r="1.414" fill="#fefe00"/><circle cx="27" cy="15.581" r="1.414" fill="#fefe00"/><circle cx="31" cy="15.581" r="1.414" fill="#fefe00"/><circle cx="35" cy="15.581" r="1.414" fill="#fefe00"/><circle cx="39" cy="15.581" r="1.414" fill="#fefe00"/><circle cx="43" cy="15.581" r="1.414" fill="#fefe00"/><circle cx="47" cy="15.581" r="1.414" fill="#fefe00"/><circle cx="51" cy="15.581" r="1.414" fill="#fefe00"/><circle cx="55" cy="15.581" r="1.414" fill="#fefe00"/><path d="M12 18.581v-2h2v2zM18 16.581v1.477c-1.84.6-1.839.6-2-1.477zM22 16.581v1.477c-1.84.6-1.839.6-2-1.477zM26 16.581v1.477c-1.84.6-1.839.6-2-1.477zM30 16.581v1.477c-1.84.6-1.839.6-2-1.477zM34 16.581v1.477c-1.84.6-1.839.6-2-1.477zM38 16.581v1.477c-1.84.6-1.839.6-2-1.477zM42 16.581v1.477c-1.84.6-1.839.6-2-1.477zM46 16.581c-.019 1.1.275 2.485-2 1.728v-1.728zM50 16.581c-.019 1.1.275 2.485-2 1.728v-1.728zM54 16.581c-.019 1.1.275 2.485-2 1.728v-1.728zM58 18.581h-2v-2h2z" fill="#fefe00"/><circle cx="59" cy="19.581" r="1.414" fill="#fefe00"/><circle cx="13" cy="9.581" r="1.414" fill="#fefe00"/><circle cx="13" cy="11.581" r="1.414" fill="#bfbfbf"/><circle cx="13" cy="13.581" r="1.414" fill="#fefe00"/><circle cx="13" cy="15.581" r="1.414" fill="#bfbfbf"/><circle cx="33" cy="5.581" r="1.414" fill="#fefe00"/><circle cx="31" cy="5.581" r="1.414" fill="#bfbfbf"/><circle cx="29" cy="5.581" r="1.414" fill="#fefe00"/><circle cx="27" cy="5.581" r="1.414" fill="#bfbfbf"/><circle cx="25" cy="5.581" r="1.414" fill="#fefe00"/><circle cx="23" cy="5.581" r="1.414" fill="#bfbfbf"/><circle cx="21" cy="5.581" r="1.414" fill="#fefe00"/><circle cx="19" cy="5.581" r="1.414" fill="#bfbfbf"/><circle cx="17" cy="5.581" r="1.414" fill="#fefe00"/><circle cx="35" cy="7.581" r="1.414" fill="#fefe00"/><circle cx="15" cy="7.581" r="1.414" fill="#fefe00"/><circle cx="9" cy="37.581" r="1.414" fill="#bfbfbf"/><circle cx="11" cy="39.581" r="1.414" fill="#bfbfbf"/><circle cx="11" cy="41.581" r="1.414" fill="#fefe00"/><circle cx="11" cy="43.581" r="1.414" fill="#bfbfbf"/><circle cx="11" cy="45.581" r="1.414" fill="#fefe00"/><circle cx="9" cy="31.581" r="1.414" fill="#fefe00"/><circle cx="9" cy="33.581" r="1.414" fill="#bfbfbf"/><circle cx="9" cy="35.581" r="1.414" fill="#fefe00"/><circle cx="13" cy="47.581" r="1.414" fill="#fefe00"/><circle cx="59" cy="47.581" r="1.414" fill="#bfbfbf"/><circle cx="15" cy="47.581" r="1.414" fill="#bfbfbf"/><circle cx="17" cy="47.581" r="1.414" fill="#fefe00"/><circle cx="19" cy="47.581" r="1.414" fill="#bfbfbf"/><circle cx="21" cy="47.581" r="1.414" fill="#fefe00"/><circle cx="23" cy="47.581" r="1.414" fill="#bfbfbf"/><circle cx="25" cy="47.581" r="1.414" fill="#fefe00"/><circle cx="27" cy="47.581" r="1.414" fill="#bfbfbf"/><circle cx="29" cy="47.581" r="1.414" fill="#fefe00"/><circle cx="31" cy="47.581" r="1.414" fill="#bfbfbf"/><circle cx="33" cy="47.581" r="1.414" fill="#fefe00"/><circle cx="35" cy="47.581" r="1.414" fill="#bfbfbf"/><circle cx="37" cy="47.581" r="1.414" fill="#fefe00"/><circle cx="39" cy="47.581" r="1.414" fill="#bfbfbf"/><circle cx="41" cy="47.581" r="1.414" fill="#fefe00"/><circle cx="43" cy="47.581" r="1.414" fill="#bfbfbf"/><circle cx="45" cy="47.581" r="1.414" fill="#fefe00"/><circle cx="47" cy="47.581" r="1.414" fill="#bfbfbf"/><circle cx="49" cy="47.581" r="1.414" fill="#fefe00"/><circle cx="51" cy="47.581" r="1.414" fill="#bfbfbf"/><circle cx="53" cy="47.581" r="1.414" fill="#fefe00"/><circle cx="55" cy="47.581" r="1.414" fill="#bfbfbf"/><circle cx="57" cy="47.581" r="1.414" fill="#fefe00"/><path d="M60 30.581v4h-4v-2h2v-2z" fill="#959595"/><circle cx="59" cy="35.581" r="1.414" fill="#bfbfbf"/><path d="M60 30.581h-2v-8h2v8z"/><circle cx="59" cy="15.581" r="1.414" fill="#fefe00"/><circle cx="59" cy="17.581" r="1.414" fill="#bfbfbf"/><circle cx="59" cy="21.581" r="1.414" fill="gray"/><circle cx="57" cy="41.581" r="1.414" fill="#bfbfbf"/><circle cx="55" cy="43.581" r="1.414" fill="#bfbfbf"/><circle cx="57" cy="45.581" r="1.414" fill="#bfbfbf"/><circle cx="57" cy="37.581" r="1.414" fill="#bfbfbf"/><circle cx="55" cy="39.581" r="1.414" fill="#bfbfbf"/><path d="M54 24.581h2v2h-2z" fill="#fefe00"/><circle cx="57" cy="27.581" r="1.414" fill="#fefe00"/><circle cx="9" cy="25.581" r="1.414" fill="#bfbfbf"/><circle cx="11" cy="25.581" r="1.414" fill="#fefe00"/><circle cx="13" cy="25.581" r="1.414" fill="#bfbfbf"/><circle cx="15" cy="25.581" r="1.414" fill="#fefe00"/><circle cx="17" cy="25.581" r="1.414" fill="#bfbfbf"/><circle cx="19" cy="25.581" r="1.414" fill="#fefe00"/><circle cx="21" cy="25.581" r="1.414" fill="#bfbfbf"/><circle cx="23" cy="25.581" r="1.414" fill="#fefe00"/><circle cx="25" cy="25.581" r="1.414" fill="#bfbfbf"/><circle cx="27" cy="25.581" r="1.414" fill="#fefe00"/><circle cx="29" cy="25.581" r="1.414" fill="#bfbfbf"/><circle cx="31" cy="25.581" r="1.414" fill="#fefe00"/><circle cx="33" cy="25.581" r="1.414" fill="#bfbfbf"/><circle cx="35" cy="25.581" r="1.414" fill="#fefe00"/><circle cx="37" cy="25.581" r="1.414" fill="#bfbfbf"/><circle cx="39" cy="25.581" r="1.414" fill="#fefe00"/><circle cx="41" cy="25.581" r="1.414" fill="#bfbfbf"/><circle cx="43" cy="25.581" r="1.414" fill="#fefe00"/><circle cx="45" cy="25.581" r="1.414" fill="#bfbfbf"/><circle cx="47" cy="25.581" r="1.414" fill="#fefe00"/><circle cx="49" cy="25.581" r="1.414" fill="#bfbfbf"/><circle cx="51" cy="25.581" r="1.414" fill="#fefe00"/><circle cx="53" cy="25.581" r="1.414" fill="#bfbfbf"/><circle cx="9" cy="27.581" r="1.414" fill="#fefe00"/><circle cx="9" cy="29.581" r="1.414" fill="#bfbfbf"/><circle cx="37" cy="11.581" r="1.414" fill="#bfbfbf"/><circle cx="39" cy="13.581" r="1.414" fill="#bfbfbf"/><circle cx="41" cy="15.581" r="1.414" fill="#bfbfbf"/><circle cx="45" cy="15.581" r="1.414" fill="#bfbfbf"/><circle cx="49" cy="15.581" r="1.414" fill="#bfbfbf"/><circle cx="53" cy="15.581" r="1.414" fill="#bfbfbf"/><circle cx="57" cy="15.581" r="1.414" fill="#bfbfbf"/><circle cx="35" cy="9.581" r="1.414" fill="#bfbfbf"/><circle cx="15" cy="13.581" r="1.414" fill="#bfbfbf"/><circle cx="17" cy="15.581" r="1.414" fill="#bfbfbf"/><circle cx="19" cy="13.581" r="1.414" fill="#bfbfbf"/><circle cx="21" cy="15.581" r="1.414" fill="#bfbfbf"/><circle cx="23" cy="13.581" r="1.414" fill="#bfbfbf"/><circle cx="25" cy="15.581" r="1.414" fill="#bfbfbf"/><circle cx="27" cy="13.581" r="1.414" fill="#bfbfbf"/><circle cx="29" cy="15.581" r="1.414" fill="#bfbfbf"/><circle cx="31" cy="13.581" r="1.414" fill="#bfbfbf"/><circle cx="33" cy="15.581" r="1.414" fill="#bfbfbf"/><circle cx="35" cy="13.581" r="1.414" fill="#bfbfbf"/><circle cx="37" cy="15.581" r="1.414" fill="#bfbfbf"/><circle cx="15" cy="9.581" r="1.414" fill="#bfbfbf"/><circle cx="15" cy="11.581" r="1.414" fill="#fefe00"/><circle cx="33" cy="7.581" r="1.414" fill="#bfbfbf"/><circle cx="31" cy="7.581" r="1.414" fill="#fefe00"/><circle cx="29" cy="7.581" r="1.414" fill="#bfbfbf"/><circle cx="27" cy="7.581" r="1.414" fill="#fefe00"/><circle cx="25" cy="7.581" r="1.414" fill="#bfbfbf"/><circle cx="23" cy="7.581" r="1.414" fill="#fefe00"/><circle cx="21" cy="7.581" r="1.414" fill="#bfbfbf"/><circle cx="19" cy="7.581" r="1.414" fill="#fefe00"/><circle cx="17" cy="7.581" r="1.414" fill="#bfbfbf"/><circle cx="11" cy="37.581" r="1.414" fill="#fefe00"/><circle cx="13" cy="39.581" r="1.414" fill="#fefe00"/><circle cx="13" cy="41.581" r="1.414" fill="#bfbfbf"/><circle cx="13" cy="43.581" r="1.414" fill="#fefe00"/><circle cx="13" cy="45.581" r="1.414" fill="#bfbfbf"/><circle cx="11" cy="31.581" r="1.414" fill="#bfbfbf"/><circle cx="11" cy="33.581" r="1.414" fill="#fefe00"/><circle cx="11" cy="35.581" r="1.414" fill="#bfbfbf"/><circle cx="15" cy="45.581" r="1.414" fill="#fefe00"/><circle cx="17" cy="45.581" r="1.414" fill="#bfbfbf"/><circle cx="19" cy="45.581" r="1.414" fill="#fefe00"/><circle cx="21" cy="45.581" r="1.414" fill="#bfbfbf"/><circle cx="23" cy="45.581" r="1.414" fill="#fefe00"/><circle cx="25" cy="45.581" r="1.414" fill="#bfbfbf"/><circle cx="27" cy="45.581" r="1.414" fill="#fefe00"/><circle cx="29" cy="45.581" r="1.414" fill="#bfbfbf"/><circle cx="31" cy="45.581" r="1.414" fill="#fefe00"/><circle cx="33" cy="45.581" r="1.414" fill="#bfbfbf"/><circle cx="35" cy="45.581" r="1.414" fill="#fefe00"/><circle cx="37" cy="45.581" r="1.414" fill="#bfbfbf"/><circle cx="39" cy="45.581" r="1.414" fill="#fefe00"/><circle cx="41" cy="45.581" r="1.414" fill="#bfbfbf"/><circle cx="43" cy="45.581" r="1.414" fill="#fefe00"/><circle cx="45" cy="45.581" r="1.414" fill="#bfbfbf"/><circle cx="47" cy="45.581" r="1.414" fill="#fefe00"/><circle cx="49" cy="45.581" r="1.414" fill="#bfbfbf"/><circle cx="51" cy="45.581" r="1.414" fill="#fefe00"/><circle cx="53" cy="45.581" r="1.414" fill="#bfbfbf"/><circle cx="55" cy="45.581" r="1.414" fill="#fefe00"/><path d="M58 30.581v2h-2v-2z" fill="#fefe00"/><circle cx="55" cy="33.581" r="1.414" fill="#fefe00"/><circle cx="57" cy="35.581" r="1.414" fill="#fefe00"/><circle cx="57" cy="29.581" r="1.414" fill="#bfbfbf"/><circle cx="55" cy="41.581" r="1.414" fill="#fefe00"/><circle cx="53" cy="43.581" r="1.414" fill="#fefe00"/><circle cx="55" cy="37.581" r="1.414" fill="#fefe00"/><circle cx="53" cy="39.581" r="1.414" fill="#fefe00"/><circle cx="55" cy="27.581" r="1.414" fill="#bfbfbf"/><circle cx="11" cy="27.581" r="1.414" fill="#bfbfbf"/><circle cx="13" cy="27.581" r="1.414" fill="#fefe00"/><circle cx="15" cy="27.581" r="1.414" fill="#bfbfbf"/><circle cx="17" cy="27.581" r="1.414" fill="#fefe00"/><circle cx="19" cy="27.581" r="1.414" fill="#bfbfbf"/><circle cx="21" cy="27.581" r="1.414" fill="#fefe00"/><circle cx="23" cy="27.581" r="1.414" fill="#bfbfbf"/><circle cx="25" cy="27.581" r="1.414" fill="#fefe00"/><circle cx="27" cy="27.581" r="1.414" fill="#bfbfbf"/><circle cx="29" cy="27.581" r="1.414" fill="#fefe00"/><circle cx="31" cy="27.581" r="1.414" fill="#bfbfbf"/><circle cx="33" cy="27.581" r="1.414" fill="#fefe00"/><circle cx="35" cy="27.581" r="1.414" fill="#bfbfbf"/><circle cx="37" cy="27.581" r="1.414" fill="#fefe00"/><circle cx="39" cy="27.581" r="1.414" fill="#bfbfbf"/><circle cx="41" cy="27.581" r="1.414" fill="#fefe00"/><circle cx="43" cy="27.581" r="1.414" fill="#bfbfbf"/><circle cx="45" cy="27.581" r="1.414" fill="#fefe00"/><circle cx="47" cy="27.581" r="1.414" fill="#bfbfbf"/><circle cx="49" cy="27.581" r="1.414" fill="#fefe00"/><circle cx="51" cy="27.581" r="1.414" fill="#bfbfbf"/><circle cx="53" cy="27.581" r="1.414" fill="#fefe00"/><circle cx="11" cy="29.581" r="1.414" fill="#fefe00"/><circle cx="35" cy="11.581" r="1.414" fill="#fefe00"/><circle cx="37" cy="13.581" r="1.414" fill="#fefe00"/><circle cx="33" cy="9.581" r="1.414" fill="#fefe00"/><circle cx="17" cy="13.581" r="1.414" fill="#fefe00"/><circle cx="19" cy="11.581" r="1.414" fill="#fefe00"/><circle cx="21" cy="13.581" r="1.414" fill="#fefe00"/><circle cx="23" cy="11.581" r="1.414" fill="#fefe00"/><circle cx="25" cy="13.581" r="1.414" fill="#fefe00"/><circle cx="27" cy="11.581" r="1.414" fill="#fefe00"/><circle cx="29" cy="13.581" r="1.414" fill="#fefe00"/><circle cx="31" cy="11.581" r="1.414" fill="#fefe00"/><circle cx="33" cy="13.581" r="1.414" fill="#fefe00"/><circle cx="17" cy="9.581" r="1.414" fill="#fefe00"/><circle cx="17" cy="11.581" r="1.414" fill="#bfbfbf"/><circle cx="31" cy="9.581" r="1.414" fill="#bfbfbf"/><circle cx="29" cy="9.581" r="1.414" fill="#fefe00"/><circle cx="27" cy="9.581" r="1.414" fill="#bfbfbf"/><circle cx="25" cy="9.581" r="1.414" fill="#fefe00"/><circle cx="23" cy="9.581" r="1.414" fill="#bfbfbf"/><circle cx="21" cy="9.581" r="1.414" fill="#fefe00"/><circle cx="19" cy="9.581" r="1.414" fill="#bfbfbf"/><circle cx="13" cy="37.581" r="1.414" fill="#bfbfbf"/><circle cx="15" cy="39.581" r="1.414" fill="#bfbfbf"/><circle cx="15" cy="41.581" r="1.414" fill="#fefe00"/><circle cx="15" cy="43.581" r="1.414" fill="#bfbfbf"/><circle cx="13" cy="31.581" r="1.414" fill="#fefe00"/><circle cx="13" cy="33.581" r="1.414" fill="#bfbfbf"/><circle cx="13" cy="35.581" r="1.414" fill="#fefe00"/><circle cx="17" cy="43.581" r="1.414" fill="#fefe00"/><circle cx="19" cy="43.581" r="1.414" fill="#bfbfbf"/><circle cx="21" cy="43.581" r="1.414" fill="#fefe00"/><circle cx="23" cy="43.581" r="1.414" fill="#bfbfbf"/><circle cx="25" cy="43.581" r="1.414" fill="#fefe00"/><circle cx="27" cy="43.581" r="1.414" fill="#bfbfbf"/><circle cx="29" cy="43.581" r="1.414" fill="#fefe00"/><circle cx="31" cy="43.581" r="1.414" fill="#bfbfbf"/><circle cx="33" cy="43.581" r="1.414" fill="#fefe00"/><circle cx="35" cy="43.581" r="1.414" fill="#bfbfbf"/><circle cx="37" cy="43.581" r="1.414" fill="#fefe00"/><circle cx="39" cy="43.581" r="1.414" fill="#bfbfbf"/><circle cx="41" cy="43.581" r="1.414" fill="#fefe00"/><circle cx="43" cy="43.581" r="1.414" fill="#bfbfbf"/><circle cx="45" cy="43.581" r="1.414" fill="#fefe00"/><circle cx="47" cy="43.581" r="1.414" fill="#bfbfbf"/><circle cx="49" cy="43.581" r="1.414" fill="#fefe00"/><circle cx="51" cy="43.581" r="1.414" fill="#bfbfbf"/><circle cx="55" cy="31.581" r="1.414" fill="#bfbfbf"/><circle cx="53" cy="33.581" r="1.414" fill="#bfbfbf"/><circle cx="55" cy="35.581" r="1.414" fill="#bfbfbf"/><circle cx="55" cy="29.581" r="1.414" fill="#fefe00"/><circle cx="53" cy="41.581" r="1.414" fill="#bfbfbf"/><circle cx="53" cy="37.581" r="1.414" fill="#bfbfbf"/><circle cx="51" cy="39.581" r="1.414" fill="#bfbfbf"/><circle cx="13" cy="29.581" r="1.414" fill="#bfbfbf"/><circle cx="15" cy="29.581" r="1.414" fill="#fefe00"/><circle cx="17" cy="29.581" r="1.414" fill="#bfbfbf"/><circle cx="19" cy="29.581" r="1.414" fill="#fefe00"/><circle cx="21" cy="29.581" r="1.414" fill="#bfbfbf"/><circle cx="23" cy="29.581" r="1.414" fill="#fefe00"/><circle cx="25" cy="29.581" r="1.414" fill="#bfbfbf"/><circle cx="27" cy="29.581" r="1.414" fill="#fefe00"/><circle cx="29" cy="29.581" r="1.414" fill="#bfbfbf"/><circle cx="31" cy="29.581" r="1.414" fill="#fefe00"/><circle cx="33" cy="29.581" r="1.414" fill="#bfbfbf"/><circle cx="35" cy="29.581" r="1.414" fill="#fefe00"/><circle cx="37" cy="29.581" r="1.414" fill="#bfbfbf"/><circle cx="39" cy="29.581" r="1.414" fill="#fefe00"/><circle cx="41" cy="29.581" r="1.414" fill="#bfbfbf"/><circle cx="43" cy="29.581" r="1.414" fill="#fefe00"/><circle cx="45" cy="29.581" r="1.414" fill="#bfbfbf"/><circle cx="47" cy="29.581" r="1.414" fill="#fefe00"/><circle cx="49" cy="29.581" r="1.414" fill="#bfbfbf"/><circle cx="51" cy="29.581" r="1.414" fill="#fefe00"/><circle cx="53" cy="29.581" r="1.414" fill="#bfbfbf"/><circle cx="33" cy="11.581" r="1.414" fill="#bfbfbf"/><circle cx="21" cy="11.581" r="1.414" fill="#bfbfbf"/><circle cx="25" cy="11.581" r="1.414" fill="#bfbfbf"/><circle cx="29" cy="11.581" r="1.414" fill="#bfbfbf"/><circle cx="15" cy="37.581" r="1.414" fill="#fefe00"/><circle cx="17" cy="39.581" r="1.414" fill="#fefe00"/><circle cx="17" cy="41.581" r="1.414" fill="#bfbfbf"/><circle cx="15" cy="31.581" r="1.414" fill="#bfbfbf"/><circle cx="15" cy="33.581" r="1.414" fill="#fefe00"/><circle cx="15" cy="35.581" r="1.414" fill="#bfbfbf"/><circle cx="19" cy="41.581" r="1.414" fill="#fefe00"/><circle cx="21" cy="41.581" r="1.414" fill="#bfbfbf"/><circle cx="23" cy="41.581" r="1.414" fill="#fefe00"/><circle cx="25" cy="41.581" r="1.414" fill="#bfbfbf"/><circle cx="27" cy="41.581" r="1.414" fill="#fefe00"/><circle cx="29" cy="41.581" r="1.414" fill="#bfbfbf"/><circle cx="31" cy="41.581" r="1.414" fill="#fefe00"/><circle cx="33" cy="41.581" r="1.414" fill="#bfbfbf"/><circle cx="35" cy="41.581" r="1.414" fill="#fefe00"/><circle cx="37" cy="41.581" r="1.414" fill="#bfbfbf"/><circle cx="39" cy="41.581" r="1.414" fill="#fefe00"/><circle cx="41" cy="41.581" r="1.414" fill="#bfbfbf"/><circle cx="43" cy="41.581" r="1.414" fill="#fefe00"/><circle cx="45" cy="41.581" r="1.414" fill="#bfbfbf"/><circle cx="47" cy="41.581" r="1.414" fill="#fefe00"/><circle cx="49" cy="41.581" r="1.414" fill="#bfbfbf"/><circle cx="51" cy="41.581" r="1.414" fill="#fefe00"/><circle cx="53" cy="31.581" r="1.414" fill="#fefe00"/><circle cx="51" cy="33.581" r="1.414" fill="#fefe00"/><circle cx="53" cy="35.581" r="1.414" fill="#fefe00"/><circle cx="51" cy="37.581" r="1.414" fill="#fefe00"/><circle cx="49" cy="39.581" r="1.414" fill="#fefe00"/><circle cx="17" cy="31.581" r="1.414" fill="#fefe00"/><circle cx="19" cy="31.581" r="1.414" fill="#bfbfbf"/><circle cx="21" cy="31.581" r="1.414" fill="#fefe00"/><circle cx="23" cy="31.581" r="1.414" fill="#bfbfbf"/><circle cx="25" cy="31.581" r="1.414" fill="#fefe00"/><circle cx="27" cy="31.581" r="1.414" fill="#bfbfbf"/><circle cx="29" cy="31.581" r="1.414" fill="#fefe00"/><circle cx="31" cy="31.581" r="1.414" fill="#bfbfbf"/><circle cx="33" cy="31.581" r="1.414" fill="#fefe00"/><circle cx="35" cy="31.581" r="1.414" fill="#bfbfbf"/><circle cx="37" cy="31.581" r="1.414" fill="#fefe00"/><circle cx="39" cy="31.581" r="1.414" fill="#bfbfbf"/><circle cx="41" cy="31.581" r="1.414" fill="#fefe00"/><circle cx="43" cy="31.581" r="1.414" fill="#bfbfbf"/><circle cx="45" cy="31.581" r="1.414" fill="#fefe00"/><circle cx="47" cy="31.581" r="1.414" fill="#bfbfbf"/><circle cx="49" cy="31.581" r="1.414" fill="#fefe00"/><circle cx="51" cy="31.581" r="1.414" fill="#bfbfbf"/><circle cx="17" cy="37.581" r="1.414" fill="#bfbfbf"/><circle cx="19" cy="39.581" r="1.414" fill="#bfbfbf"/><circle cx="17" cy="33.581" r="1.414" fill="#bfbfbf"/><circle cx="17" cy="35.581" r="1.414" fill="#fefe00"/><circle cx="21" cy="39.581" r="1.414" fill="#fefe00"/><circle cx="23" cy="39.581" r="1.414" fill="#bfbfbf"/><circle cx="25" cy="39.581" r="1.414" fill="#fefe00"/><circle cx="27" cy="39.581" r="1.414" fill="#bfbfbf"/><circle cx="29" cy="39.581" r="1.414" fill="#fefe00"/><circle cx="31" cy="39.581" r="1.414" fill="#bfbfbf"/><circle cx="33" cy="39.581" r="1.414" fill="#fefe00"/><circle cx="35" cy="39.581" r="1.414" fill="#bfbfbf"/><circle cx="37" cy="39.581" r="1.414" fill="#fefe00"/><circle cx="39" cy="39.581" r="1.414" fill="#bfbfbf"/><circle cx="41" cy="39.581" r="1.414" fill="#fefe00"/><circle cx="43" cy="39.581" r="1.414" fill="#bfbfbf"/><circle cx="45" cy="39.581" r="1.414" fill="#fefe00"/><circle cx="47" cy="39.581" r="1.414" fill="#bfbfbf"/><circle cx="49" cy="33.581" r="1.414" fill="#bfbfbf"/><circle cx="51" cy="35.581" r="1.414" fill="#bfbfbf"/><circle cx="49" cy="37.581" r="1.414" fill="#bfbfbf"/><circle cx="19" cy="33.581" r="1.414" fill="#fefe00"/><circle cx="21" cy="33.581" r="1.414" fill="#bfbfbf"/><circle cx="23" cy="33.581" r="1.414" fill="#fefe00"/><circle cx="25" cy="33.581" r="1.414" fill="#bfbfbf"/><circle cx="27" cy="33.581" r="1.414" fill="#fefe00"/><circle cx="29" cy="33.581" r="1.414" fill="#bfbfbf"/><circle cx="31" cy="33.581" r="1.414" fill="#fefe00"/><circle cx="33" cy="33.581" r="1.414" fill="#bfbfbf"/><circle cx="35" cy="33.581" r="1.414" fill="#fefe00"/><circle cx="37" cy="33.581" r="1.414" fill="#bfbfbf"/><circle cx="39" cy="33.581" r="1.414" fill="#fefe00"/><circle cx="41" cy="33.581" r="1.414" fill="#bfbfbf"/><circle cx="43" cy="33.581" r="1.414" fill="#fefe00"/><circle cx="45" cy="33.581" r="1.414" fill="#bfbfbf"/><circle cx="47" cy="33.581" r="1.414" fill="#fefe00"/><circle cx="19" cy="37.581" r="1.414" fill="#fefe00"/><circle cx="19" cy="35.581" r="1.414" fill="#bfbfbf"/><circle cx="21" cy="37.581" r="1.414" fill="#bfbfbf"/><circle cx="23" cy="37.581" r="1.414" fill="#fefe00"/><circle cx="25" cy="37.581" r="1.414" fill="#bfbfbf"/><circle cx="27" cy="37.581" r="1.414" fill="#fefe00"/><circle cx="29" cy="37.581" r="1.414" fill="#bfbfbf"/><circle cx="31" cy="37.581" r="1.414" fill="#fefe00"/><circle cx="33" cy="37.581" r="1.414" fill="#bfbfbf"/><circle cx="35" cy="37.581" r="1.414" fill="#fefe00"/><circle cx="37" cy="37.581" r="1.414" fill="#bfbfbf"/><circle cx="39" cy="37.581" r="1.414" fill="#fefe00"/><circle cx="41" cy="37.581" r="1.414" fill="#bfbfbf"/><circle cx="43" cy="37.581" r="1.414" fill="#fefe00"/><circle cx="45" cy="37.581" r="1.414" fill="#bfbfbf"/><circle cx="47" cy="37.581" r="1.414" fill="#fefe00"/><circle cx="49" cy="35.581" r="1.414" fill="#fefe00"/><circle cx="21" cy="35.581" r="1.414" fill="#fefe00"/><circle cx="23" cy="35.581" r="1.414" fill="#bfbfbf"/><circle cx="25" cy="35.581" r="1.414" fill="#fefe00"/><circle cx="27" cy="35.581" r="1.414" fill="#bfbfbf"/><circle cx="29" cy="35.581" r="1.414" fill="#fefe00"/><circle cx="31" cy="35.581" r="1.414" fill="#bfbfbf"/><circle cx="33" cy="35.581" r="1.414" fill="#fefe00"/><circle cx="35" cy="35.581" r="1.414" fill="#bfbfbf"/><circle cx="37" cy="35.581" r="1.414" fill="#fefe00"/><circle cx="39" cy="35.581" r="1.414" fill="#bfbfbf"/><circle cx="41" cy="35.581" r="1.414" fill="#fefe00"/><circle cx="43" cy="35.581" r="1.414" fill="#bfbfbf"/><circle cx="45" cy="35.581" r="1.414" fill="#fefe00"/><circle cx="47" cy="35.581" r="1.414" fill="#bfbfbf"/></svg>