<svg xmlns="http://www.w3.org/2000/svg" viewBox="0 0 64 64"><path d="M16.1 4h4.6v4.6h-4.6z"/><path d="M20.7 4h5.5v4.6h-5.5z"/><path d="M26.2 4h4.6v4.6h-4.6zM16.1 34.2h4.6v4.6h-4.6z"/><path d="M20.7 34.2h5.5v4.6h-5.5z"/><path d="M26.2 34.2h4.6v4.6h-4.6zm4.6-25.6h5.5v5.5h-5.5zm-20.2 0h5.5v5.5h-5.5zm20.2 20.2h5.5v5.5h-5.5z"/><path d="M36.2 34.2h4.6v4.6h-4.6z"/><path d="M30.8 34.2h5.5v4.6h-5.5z"/><path d="M36.2 28.8h4.6v5.5h-4.6zm4.6 10h5.5v5.5h-5.5zM36.2 38.8h4.6v5.5h-4.6z"/><path d="M40.8 34.2h5.5v4.6h-5.5zm5.5 10.1h4.6v4.6h-4.6zm-5.5 0h5.5v4.6h-5.5zm5.5-5.5h4.6v5.5h-4.6zm4.6 10.1h5.5v5.5h-5.5zm-4.6 0h4.6v5.5h-4.6zm4.6-4.6h5.5v4.6h-5.5zm5.5 10.1H61V59h-4.6zm-5.5 0h5.5V59h-5.5zm5.5-5.5H61v5.5h-4.6zM10.6 28.8h5.5v5.5h-5.5zM6 14.1h4.6v4.6H6zm0 4.6h4.6v5.5H6zm0 5.5h4.6v4.6H6zm30.2-10.1h4.6v4.6h-4.6zm0 4.6h4.6v5.5h-4.6zm0 5.5h4.6v4.6h-4.6zm-20.1-4.6h5.5v5.5h-5.5zm5.5-5.5h5.5v5.5h-5.5z"/></svg>