<svg xmlns="http://www.w3.org/2000/svg" width="66" height="60" viewBox="0 0 66 60"><title>start</title><path d="M25.3 24.493v-2.851a70.471 70.471 0 00-7.767-.134c-2.634-.046-5.27-.01-8.059-.01v-7.751h3.736l.19 3.553h3.81l.17-3.6h7.641c.157-1.386.3-2.621.456-4.029h3.615l.335-4.042h7.779V1.644h15.865v3.677h8.017v3.96l4.02.389v47.614l-3.724.184v-3.922h-7.991l-.22-3.893h-15.8l-.169 3.608h-7.64c-.156 1.388-.3 2.624-.453 4.016H9.557V49.6h3.654v3.723h4.047v-3.85H25.3v-24.98zM37.283 21.5h4V10.516l-1-1h-2c-1.925.468-.619 2.012-1 2.995l-1 1h-3v10.982l1 1h2c.333-.391.884-.747.954-1.181a17.8 17.8 0 00.046-2.812zm3 19.967l1-1v-9.984l-1-1h-2l-1 1v3h-3l-1 1v9.977l1 1h2l1-1v-2.995zM53.267 22.5v2.895h3.8v-11.79l-3.679-.205-.267-3.728h-3.85c0 2.115-.016 4.085.005 6.054.02 1.934.078 3.867.118 5.774h2.874zm.17 18.956v4.041l3.667-.211v-11.64l-4.004-.427V29.45l-3.666.211v11.791z" fill="#020102"/><path d="M1.318 45.551h3.821v7.7c-.543.052-1.293.136-2.045.2-1.07.084-1.917.05-1.809-1.49.138-1.981.033-3.97.033-6.41z" fill="#010101"/><path d="M1.486 9.6h3.661v7.732l-3.661.2z" fill="#020102"/><path d="M53.437 41.452h-4.006V29.661l3.669-.211v3.769l4.007.427v11.636l-3.667.211z" fill="#f9eb00"/><path d="M52.268 21.5h-2.874c-.04-1.907-.1-3.84-.118-5.774-.021-1.969-.005-3.939-.005-6.054h3.85l.267 3.728 3.676.207v11.784h-3.8V22.5z" fill="#00f700"/><path d="M41.279 30.483v9.983l-1 1h-3v2.994l-1 1h-2l-1-1v-9.984l1-1h3v-3l1-1h2z" fill="#1b00fe"/><path d="M10.31 25.491h2c.38.983-.926 2.527 1 3a2.477 2.477 0 004 0l1.566-2H25.3v5.99H10.31zM38.282 9.518h2l1 1v6.989c-2.045.207-.239 2.284-1.753 3.092-.377.53-2.027-1-2.243.9-.333.391-.884.747-.954 1.181a17.8 17.8 0 00-.045 2.812h-2l-1-1v-6.987c2.044-.2.227-2.266 2.274-3.365l.723-.629 1-1c1.924-.466.616-2.011.998-2.993z" fill="#fd0000"/><path d="M10.31 37.471h2a17.691 17.691 0 00.045 2.813c.07.433.621.789.954 1.181a2.478 2.478 0 004 0c2.063-.205.211-2.332 1.558-3 1.159 0 2.436.056 3.7-.046.269-.021.492-.62.736-.953h2v7.987h-1c-.013-1.368-1.06-.968-1.782-.983-1.989-.043-3.98.024-5.969-.026-2.086-.052-4.207.249-6.235-.225z" fill="#1c00fe"/><path d="M10.31 25.491v6.989H25.3v1H9.311v-7.989zM25.3 26.49h-6.431l-1.566 2v-3H25.3z" fill="#e1000d"/><path d="M37.283 21.5c.216-1.9 1.866-.371 2.243-.9 1.514-.808-.292-2.885 1.753-3.092V21.5zM36.284 13.511l-.723.629c-2.047 1.1-.23 3.162-2.274 3.365v-3.994z" fill="#df0012"/><path d="M36.284 25.491a17.8 17.8 0 01.045-2.812c.07-.434.621-.79.954-1.181a17.8 17.8 0 01-.045 2.812c-.07.434-.621.79-.954 1.181zM38.282 9.518c-.38.982.926 2.527-1 2.995.381-.983-.925-2.527 1-2.995z" fill="#df0012"/><path d="M10.31 37.471v6.753c2.028.474 4.149.173 6.235.225 1.989.05 3.98-.017 5.969.026.722.015 1.769-.385 1.782.983H9.311v-7.987z" fill="#1602ca"/><path d="M23.3 37.471c-.244.333-.467.932-.736.953-1.264.1-2.541.046-3.7.046-1.347.663.5 2.79-1.558 3v-3.999z" fill="#1a02ce"/><path d="M13.307 41.465c-.333-.392-.884-.748-.954-1.181a17.691 17.691 0 01-.045-2.813h1z" fill="#1602ca"/><path d="M17.3 41.465a2.478 2.478 0 01-4 0z" fill="#1a02ce"/><path d="M13.307 28.486c-1.925-.468-.619-2.012-1-3h1z" fill="#e1000d"/><ellipse cx="1.818" cy="37.471" rx=".706" ry="5.647" fill="#1602ca"/><ellipse cx="3.316" cy="25.491" rx="2.826" ry="5.647" fill="#f30004"/><ellipse cx="4.815" cy="37.471" rx=".706" ry="5.647" fill="#1602ca"/><ellipse cx="3.316" cy="37.471" rx="1.413" ry="5.647" fill="#1b00fe"/></svg>